#Produced by polyHédronisme http://levskaya.github.com/polyhedronisme
group I
#vertices
v 0.000056734333177546075 -0.00004358124627805579 0.9999999974409453
v 0.8937213289839387 -0.00004358124627805579 0.44730543367025566
v 0.2755537168896444 0.8502557476317061 0.4464551343413777
v -0.7235479945419869 0.5254414040003161 0.44730543367025566
v -0.7235479945419869 -0.5255285664928723 0.44730543367025566
v 0.2764040162185224 -0.8503429101242621 0.44730543367025566
v 0.723661463208342 0.5254414040003161 -0.44720946030938363
v 0.723661463208342 -0.5255285664928723 -0.44720946030938363
v -0.27629054755216725 0.8502557476317061 -0.44720946030938363
v -0.8936078603175837 -0.00004358124627805579 -0.44720946030938363
v -0.27629054755216725 -0.8503429101242621 -0.44720946030938363
v 0.000056734333177546075 -0.00004358124627805579 -0.9999040240800732
#normal vector defs 
vn -0.9824038959520898 0 0.18676880151180406
vn -0.6069993989279424 0 0.7947022899810448
vn -0.7948156811079032 -0.5770361844843378 -0.18787568991420175
vn -0.18757132989347533 -0.5774447223945736 0.7945908310449139
vn -0.3034606359489898 -0.9342138949633825 0.18749944236391958
vn -0.7948156811079032 0.5770361844843378 -0.18787568991420167
vn -0.1871738612233943 0.5778107471082619 0.7944184578677145
vn -0.49138321314312106 -0.3567442127419059 -0.7945288569437237
vn 0.49138321314312106 -0.3567442127419058 0.7945288569437234
vn 0.3034606359489898 -0.9342138949633825 -0.18749944236391958
vn -0.3035530814104802 0.9341945467310431 0.18744619394424514
vn -0.49138321314312106 0.3567442127419059 -0.7945288569437237
vn 0.491157544463102 0.3578656987927224 0.7941639680472619
vn 0.1875713298934753 -0.5774447223945733 -0.7945908310449139
vn 0.7948156811079032 -0.5770361844843377 0.1878756899142017
vn 0.3034669121663926 0.9342332165122452 -0.18739298382111208
vn 0.18757132989347539 0.5774447223945733 -0.7945908310449139
vn 0.7942784908781527 0.5776287888126284 0.18832594421157214
vn 0.6069993989279424 0 -0.794702289981045
vn 0.9824038959520898 0 -0.18676880151180406
#face defs 
f 4//1 10//1 5//1 
f 1//2 4//2 5//2 
f 5//3 10//3 11//3 
f 1//4 5//4 6//4 
f 5//5 11//5 6//5 
f 4//6 9//6 10//6 
f 1//7 3//7 4//7 
f 10//8 12//8 11//8 
f 1//9 6//9 2//9 
f 6//10 11//10 8//10 
f 3//11 9//11 4//11 
f 9//12 12//12 10//12 
f 1//13 2//13 3//13 
f 8//14 11//14 12//14 
f 2//15 6//15 8//15 
f 3//16 7//16 9//16 
f 7//17 12//17 9//17 
f 2//18 7//18 3//18 
f 7//19 8//19 12//19 
f 2//20 8//20 7//20 
